<svg xmlns="http://www.w3.org/2000/svg" viewBox="0 0 980 620" role="img" aria-label="Stylized city safety network">
  <defs>
    <linearGradient id="sky" x1="0" y1="0" x2="1" y2="1">
      <stop offset="0" stop-color="#09111f"/>
      <stop offset=".55" stop-color="#102a37"/>
      <stop offset="1" stop-color="#15281d"/>
    </linearGradient>
    <linearGradient id="road" x1="0" y1="0" x2="1" y2="0">
      <stop offset="0" stop-color="#172033"/>
      <stop offset=".5" stop-color="#24414a"/>
      <stop offset="1" stop-color="#172033"/>
    </linearGradient>
    <filter id="glow">
      <feGaussianBlur stdDeviation="7" result="blur"/>
      <feMerge>
        <feMergeNode in="blur"/>
        <feMergeNode in="SourceGraphic"/>
      </feMerge>
    </filter>
  </defs>
  <rect width="980" height="620" fill="url(#sky)"/>
  <circle cx="805" cy="105" r="55" fill="#f8d477" opacity=".9"/>
  <circle cx="805" cy="105" r="92" fill="#f8d477" opacity=".08"/>
  <g opacity=".5" fill="#d9f7ff">
    <circle cx="112" cy="94" r="2"/><circle cx="228" cy="54" r="1.6"/><circle cx="432" cy="76" r="2.2"/>
    <circle cx="602" cy="46" r="1.5"/><circle cx="711" cy="171" r="1.8"/><circle cx="891" cy="213" r="2"/>
  </g>
  <g fill="#0b1424">
    <path d="M0 358h95v-86h49v86h58V222h72v136h48V186h82v172h49v-112h67v112h42V202h87v156h46V258h62v100h49V178h86v180h68v262H0z"/>
  </g>
  <g fill="#1f3442">
    <rect x="37" y="310" width="12" height="22"/><rect x="67" y="292" width="12" height="18"/><rect x="226" y="252" width="14" height="22"/>
    <rect x="258" y="252" width="14" height="22"/><rect x="358" y="224" width="13" height="24"/><rect x="388" y="224" width="13" height="24"/>
    <rect x="590" y="235" width="14" height="23"/><rect x="626" y="235" width="14" height="23"/><rect x="846" y="222" width="13" height="24"/>
    <rect x="882" y="222" width="13" height="24"/>
  </g>
  <path d="M0 486c175-50 316-63 478-34 162 28 320 24 502-28v196H0z" fill="url(#road)"/>
  <path d="M118 540c185-66 349-73 522-31 69 17 132 22 206 14" fill="none" stroke="#e5f7ef" stroke-width="8" opacity=".35" stroke-dasharray="28 34"/>
  <g filter="url(#glow)">
    <path d="M172 412c77-65 150-90 246-58 67 22 113 11 162-31 49-42 102-51 163-26" fill="none" stroke="#67e8f9" stroke-width="3" opacity=".65"/>
    <circle cx="172" cy="412" r="12" fill="#34d399"/>
    <circle cx="418" cy="354" r="14" fill="#fbbf24"/>
    <circle cx="580" cy="323" r="12" fill="#fb7185"/>
    <circle cx="743" cy="297" r="16" fill="#fb7185"/>
  </g>
  <g fill="#f8fafc" opacity=".82">
    <path d="M753 292l-15 30h30z"/>
    <rect x="735" y="323" width="36" height="8" rx="4"/>
  </g>
  <g opacity=".85">
    <circle cx="305" cy="455" r="27" fill="#0e1726" stroke="#67e8f9" stroke-width="3"/>
    <path d="M294 456l8 8 17-20" fill="none" stroke="#67e8f9" stroke-width="5" stroke-linecap="round" stroke-linejoin="round"/>
  </g>
</svg>
